<mxfile host="app.diagrams.net" modified="2022-06-20T14:01:52.192Z" agent="5.0 (Windows)" etag="k5C-3NXxjGrsbbAxQC9g" version="20.0.1" type="github">
  <diagram id="C5RBs43oDa-KdzZeNtuy" name="Page-1">
    <mxGraphModel dx="1422" dy="780" grid="1" gridSize="10" guides="1" tooltips="1" connect="1" arrows="1" fold="1" page="1" pageScale="1" pageWidth="827" pageHeight="1169" math="0" shadow="0">
      <root>
        <mxCell id="WIyWlLk6GJQsqaUBKTNV-0" />
        <mxCell id="WIyWlLk6GJQsqaUBKTNV-1" parent="WIyWlLk6GJQsqaUBKTNV-0" />
        <mxCell id="aP12nHPMY8GT1LRpDTK_-2" style="edgeStyle=orthogonalEdgeStyle;rounded=0;orthogonalLoop=1;jettySize=auto;html=1;exitX=0.5;exitY=1;exitDx=0;exitDy=0;entryX=0.5;entryY=0;entryDx=0;entryDy=0;" parent="WIyWlLk6GJQsqaUBKTNV-1" source="aP12nHPMY8GT1LRpDTK_-0" target="aP12nHPMY8GT1LRpDTK_-1" edge="1">
          <mxGeometry relative="1" as="geometry" />
        </mxCell>
        <mxCell id="aP12nHPMY8GT1LRpDTK_-0" value="Glampartner" style="rounded=1;whiteSpace=wrap;html=1;" parent="WIyWlLk6GJQsqaUBKTNV-1" vertex="1">
          <mxGeometry x="603" y="380" width="120" height="60" as="geometry" />
        </mxCell>
        <mxCell id="aP12nHPMY8GT1LRpDTK_-4" style="edgeStyle=orthogonalEdgeStyle;rounded=0;orthogonalLoop=1;jettySize=auto;html=1;exitX=0;exitY=0.5;exitDx=0;exitDy=0;entryX=1;entryY=0.5;entryDx=0;entryDy=0;" parent="WIyWlLk6GJQsqaUBKTNV-1" source="aP12nHPMY8GT1LRpDTK_-1" target="aP12nHPMY8GT1LRpDTK_-3" edge="1">
          <mxGeometry relative="1" as="geometry" />
        </mxCell>
        <mxCell id="aP12nHPMY8GT1LRpDTK_-1" value="hasToBeUpgraded" style="rhombus;whiteSpace=wrap;html=1;" parent="WIyWlLk6GJQsqaUBKTNV-1" vertex="1">
          <mxGeometry x="588" y="530" width="150" height="140" as="geometry" />
        </mxCell>
        <mxCell id="aP12nHPMY8GT1LRpDTK_-9" style="edgeStyle=orthogonalEdgeStyle;rounded=0;orthogonalLoop=1;jettySize=auto;html=1;exitX=0.5;exitY=1;exitDx=0;exitDy=0;fontSize=12;" parent="WIyWlLk6GJQsqaUBKTNV-1" source="aP12nHPMY8GT1LRpDTK_-3" target="aP12nHPMY8GT1LRpDTK_-8" edge="1">
          <mxGeometry relative="1" as="geometry" />
        </mxCell>
        <mxCell id="aP12nHPMY8GT1LRpDTK_-3" value="Glampartner VIP" style="rounded=1;whiteSpace=wrap;html=1;" parent="WIyWlLk6GJQsqaUBKTNV-1" vertex="1">
          <mxGeometry x="214" y="570" width="120" height="60" as="geometry" />
        </mxCell>
        <mxCell id="aP12nHPMY8GT1LRpDTK_-5" value="True" style="text;html=1;align=center;verticalAlign=middle;resizable=0;points=[];autosize=1;strokeColor=none;fillColor=none;" parent="WIyWlLk6GJQsqaUBKTNV-1" vertex="1">
          <mxGeometry x="364" y="580" width="40" height="20" as="geometry" />
        </mxCell>
        <mxCell id="aP12nHPMY8GT1LRpDTK_-6" value="&lt;div style=&quot;font-size: 10px;&quot;&gt;&lt;span id=&quot;docs-internal-guid-e394c3c4-7fff-4086-8c6c-8d4c53dcc6fe&quot; style=&quot;font-size: 10px; font-family: Arial; color: rgb(0, 0, 0); background-color: transparent; font-weight: 700; font-style: normal; font-variant: normal; text-decoration: none; vertical-align: baseline;&quot;&gt;R$ 400 de comissão por &lt;br style=&quot;font-size: 10px;&quot;&gt;&lt;/span&gt;&lt;/div&gt;&lt;div style=&quot;font-size: 10px;&quot;&gt;&lt;span id=&quot;docs-internal-guid-e394c3c4-7fff-4086-8c6c-8d4c53dcc6fe&quot; style=&quot;font-size: 10px; font-family: Arial; color: rgb(0, 0, 0); background-color: transparent; font-weight: 700; font-style: normal; font-variant: normal; text-decoration: none; vertical-align: baseline;&quot;&gt;vendas no Universo Glam&lt;/span&gt;&lt;/div&gt;" style="text;html=1;align=center;verticalAlign=middle;resizable=0;points=[];autosize=1;strokeColor=none;fillColor=none;fontSize=10;" parent="WIyWlLk6GJQsqaUBKTNV-1" vertex="1">
          <mxGeometry x="420" y="570" width="140" height="30" as="geometry" />
        </mxCell>
        <mxCell id="aP12nHPMY8GT1LRpDTK_-10" style="edgeStyle=orthogonalEdgeStyle;rounded=0;orthogonalLoop=1;jettySize=auto;html=1;exitX=0;exitY=0.5;exitDx=0;exitDy=0;entryX=0;entryY=0.5;entryDx=0;entryDy=0;fontSize=12;" parent="WIyWlLk6GJQsqaUBKTNV-1" source="aP12nHPMY8GT1LRpDTK_-8" target="aP12nHPMY8GT1LRpDTK_-0" edge="1">
          <mxGeometry relative="1" as="geometry">
            <Array as="points">
              <mxPoint x="134" y="795" />
              <mxPoint x="134" y="410" />
            </Array>
          </mxGeometry>
        </mxCell>
        <mxCell id="aP12nHPMY8GT1LRpDTK_-8" value="&lt;font style=&quot;font-size: 12px;&quot;&gt;hasToBeDowngraded&lt;/font&gt;" style="rhombus;whiteSpace=wrap;html=1;fontSize=10;" parent="WIyWlLk6GJQsqaUBKTNV-1" vertex="1">
          <mxGeometry x="191.5" y="720" width="165" height="150" as="geometry" />
        </mxCell>
        <mxCell id="aP12nHPMY8GT1LRpDTK_-11" value="True" style="text;html=1;align=center;verticalAlign=middle;resizable=0;points=[];autosize=1;strokeColor=none;fillColor=none;" parent="WIyWlLk6GJQsqaUBKTNV-1" vertex="1">
          <mxGeometry x="144" y="770" width="40" height="20" as="geometry" />
        </mxCell>
        <mxCell id="aP12nHPMY8GT1LRpDTK_-12" value="&lt;div&gt;Habilita o banner roxo&lt;/div&gt;&lt;div&gt;e recebe todos os benefícios &lt;br&gt;&lt;/div&gt;&lt;div&gt;na Glambox e Glambag&lt;/div&gt;&lt;div&gt;(Uma assinatura com 100%&lt;/div&gt;&lt;div&gt;e a outra com 50%)&lt;br&gt;&lt;/div&gt;" style="text;html=1;align=center;verticalAlign=middle;resizable=0;points=[];autosize=1;strokeColor=none;fillColor=none;fontSize=10;" parent="WIyWlLk6GJQsqaUBKTNV-1" vertex="1">
          <mxGeometry x="380" y="610" width="150" height="70" as="geometry" />
        </mxCell>
        <mxCell id="aP12nHPMY8GT1LRpDTK_-13" value="&lt;font style=&quot;font-size: 18px;&quot;&gt;Processo de Upgrade/Downgrade do Robô&lt;br&gt;&lt;/font&gt;" style="text;html=1;align=center;verticalAlign=middle;resizable=0;points=[];autosize=1;strokeColor=none;fillColor=none;" parent="WIyWlLk6GJQsqaUBKTNV-1" vertex="1">
          <mxGeometry x="238" y="240" width="360" height="20" as="geometry" />
        </mxCell>
        <mxCell id="aP12nHPMY8GT1LRpDTK_-14" value="&lt;div&gt;O robô executa todo dia 25, realizando o seguinte processo de upgrade/downgrade dependendo dos resultados&lt;/div&gt;&lt;div&gt;alcançados pela partner nesse período&lt;br&gt;&lt;/div&gt;" style="text;html=1;align=center;verticalAlign=middle;resizable=0;points=[];autosize=1;strokeColor=none;fillColor=none;" parent="WIyWlLk6GJQsqaUBKTNV-1" vertex="1">
          <mxGeometry x="93" y="270" width="630" height="30" as="geometry" />
        </mxCell>
        <mxCell id="aP12nHPMY8GT1LRpDTK_-15" value="&lt;div&gt;Caso a VIP não tenha assinado o &quot;banner roxo&quot; no portal Glampartners&lt;/div&gt;&lt;div&gt;&amp;amp; não tranha feito nem uma venda, ela sofrerá downgrade&lt;br&gt;&lt;/div&gt;" style="text;html=1;align=center;verticalAlign=middle;resizable=0;points=[];autosize=1;strokeColor=none;fillColor=none;" parent="WIyWlLk6GJQsqaUBKTNV-1" vertex="1">
          <mxGeometry x="324" y="830" width="410" height="30" as="geometry" />
        </mxCell>
        <mxCell id="aP12nHPMY8GT1LRpDTK_-27" style="edgeStyle=orthogonalEdgeStyle;rounded=0;orthogonalLoop=1;jettySize=auto;html=1;exitX=0.5;exitY=1;exitDx=0;exitDy=0;entryX=0.5;entryY=0;entryDx=0;entryDy=0;fontSize=19;" parent="WIyWlLk6GJQsqaUBKTNV-1" source="aP12nHPMY8GT1LRpDTK_-16" target="aP12nHPMY8GT1LRpDTK_-20" edge="1">
          <mxGeometry relative="1" as="geometry" />
        </mxCell>
        <mxCell id="aP12nHPMY8GT1LRpDTK_-16" value="Banner Roxo Disponível" style="rounded=0;whiteSpace=wrap;html=1;fontSize=12;" parent="WIyWlLk6GJQsqaUBKTNV-1" vertex="1">
          <mxGeometry x="351" y="1455" width="120" height="60" as="geometry" />
        </mxCell>
        <mxCell id="aP12nHPMY8GT1LRpDTK_-18" value="&lt;div&gt;Fluxo Banner Roxo do Portal (Novas VIPs)&lt;/div&gt;" style="text;html=1;align=center;verticalAlign=middle;resizable=0;points=[];autosize=1;strokeColor=none;fillColor=none;fontSize=19;" parent="WIyWlLk6GJQsqaUBKTNV-1" vertex="1">
          <mxGeometry x="221" y="1300" width="380" height="30" as="geometry" />
        </mxCell>
        <mxCell id="aP12nHPMY8GT1LRpDTK_-19" value="&lt;div&gt;Para aproveitar os benefícios dos programas da GlamClub a VIP precisa assinar utilizando o banner roxo que&lt;/div&gt;&lt;div&gt;ficará disponível para ela assim que adquire esse status.&lt;/div&gt;&lt;div&gt;Bom lembrar que no caso das novas, o voucher tem validade de 4 meses, não podendo sofrer &lt;br&gt;&lt;/div&gt;&lt;div&gt;downgrade nesse período&lt;br&gt;&lt;/div&gt;" style="text;html=1;align=center;verticalAlign=middle;resizable=0;points=[];autosize=1;strokeColor=none;fillColor=none;" parent="WIyWlLk6GJQsqaUBKTNV-1" vertex="1">
          <mxGeometry x="108" y="1340" width="620" height="60" as="geometry" />
        </mxCell>
        <mxCell id="aP12nHPMY8GT1LRpDTK_-22" style="edgeStyle=orthogonalEdgeStyle;rounded=0;orthogonalLoop=1;jettySize=auto;html=1;exitX=0;exitY=0.5;exitDx=0;exitDy=0;fontSize=19;" parent="WIyWlLk6GJQsqaUBKTNV-1" source="aP12nHPMY8GT1LRpDTK_-20" target="aP12nHPMY8GT1LRpDTK_-21" edge="1">
          <mxGeometry relative="1" as="geometry" />
        </mxCell>
        <mxCell id="aP12nHPMY8GT1LRpDTK_-24" style="edgeStyle=orthogonalEdgeStyle;rounded=0;orthogonalLoop=1;jettySize=auto;html=1;exitX=1;exitY=0.5;exitDx=0;exitDy=0;fontSize=19;" parent="WIyWlLk6GJQsqaUBKTNV-1" source="aP12nHPMY8GT1LRpDTK_-20" target="aP12nHPMY8GT1LRpDTK_-23" edge="1">
          <mxGeometry relative="1" as="geometry" />
        </mxCell>
        <mxCell id="aP12nHPMY8GT1LRpDTK_-20" value="Assinou" style="rhombus;whiteSpace=wrap;html=1;fontSize=19;" parent="WIyWlLk6GJQsqaUBKTNV-1" vertex="1">
          <mxGeometry x="343" y="1615" width="136" height="80" as="geometry" />
        </mxCell>
        <mxCell id="aP12nHPMY8GT1LRpDTK_-21" value="&lt;font style=&quot;font-size: 14px;&quot;&gt;ConfirmaEdicoesVIP(MesVigente)&lt;/font&gt;" style="rounded=1;whiteSpace=wrap;html=1;fontSize=19;" parent="WIyWlLk6GJQsqaUBKTNV-1" vertex="1">
          <mxGeometry x="60" y="1775" width="239" height="60" as="geometry" />
        </mxCell>
        <mxCell id="aP12nHPMY8GT1LRpDTK_-23" value="&lt;font style=&quot;font-size: 14px;&quot;&gt;ConfirmaEdicoesVIP(PróximoMês)&lt;/font&gt;" style="rounded=1;whiteSpace=wrap;html=1;fontSize=16;" parent="WIyWlLk6GJQsqaUBKTNV-1" vertex="1">
          <mxGeometry x="530" y="1775" width="241" height="60" as="geometry" />
        </mxCell>
        <mxCell id="aP12nHPMY8GT1LRpDTK_-25" value="&lt;div&gt;Assinou até o dia 15 do&lt;/div&gt;&lt;div&gt;mês vigente&lt;br&gt;&lt;/div&gt;" style="text;html=1;align=center;verticalAlign=middle;resizable=0;points=[];autosize=1;strokeColor=none;fillColor=none;fontSize=10;" parent="WIyWlLk6GJQsqaUBKTNV-1" vertex="1">
          <mxGeometry x="184" y="1675" width="130" height="30" as="geometry" />
        </mxCell>
        <mxCell id="aP12nHPMY8GT1LRpDTK_-26" value="&lt;div&gt;Assinou após o dia 15 do&lt;/div&gt;&lt;div&gt;mês vigente&lt;br&gt;&lt;/div&gt;" style="text;html=1;align=center;verticalAlign=middle;resizable=0;points=[];autosize=1;strokeColor=none;fillColor=none;fontSize=10;" parent="WIyWlLk6GJQsqaUBKTNV-1" vertex="1">
          <mxGeometry x="507" y="1675" width="130" height="30" as="geometry" />
        </mxCell>
        <mxCell id="aP12nHPMY8GT1LRpDTK_-28" value="&lt;div&gt;Habilita o banner azul e &lt;br&gt;&lt;/div&gt;&lt;div&gt;recebe todos os benefícios &lt;br&gt;&lt;/div&gt;&lt;div&gt;na Glambox e Glambag&lt;/div&gt;&lt;div&gt;(Uma assinatura com 50% em &lt;br&gt;&lt;/div&gt;&lt;div&gt;cada plano)&lt;br&gt;&lt;/div&gt;" style="text;html=1;align=center;verticalAlign=middle;resizable=0;points=[];autosize=1;strokeColor=none;fillColor=none;fontSize=10;" parent="WIyWlLk6GJQsqaUBKTNV-1" vertex="1">
          <mxGeometry x="174" y="410" width="160" height="70" as="geometry" />
        </mxCell>
      </root>
    </mxGraphModel>
  </diagram>
</mxfile>
